<svg width="1280" height="1182" xmlns="http://www.w3.org/2000/svg" xmlns:xlink="http://www.w3.org/1999/xlink" xml:space="preserve" overflow="hidden"><defs><filter id="fx0" x="-10%" y="-10%" width="120%" height="120%" filterUnits="userSpaceOnUse" primitiveUnits="userSpaceOnUse"><feComponentTransfer color-interpolation-filters="sRGB"><feFuncR type="discrete" tableValues="0 0"/><feFuncG type="discrete" tableValues="0 0"/><feFuncB type="discrete" tableValues="0 0"/><feFuncA type="linear" slope="0.4" intercept="0"/></feComponentTransfer><feGaussianBlur stdDeviation="6.11111 6.11111"/></filter></defs><g transform="translate(-575 -485)"><g filter="url(#fx0)" transform="translate(942 719)"><g><path d="M330.529 24.4161C388.14 24.4161 432.328 32.4908 463.092 48.6403 493.857 64.7897 516.31 83.9767 530.451 106.201 531.953 108.78 533.243 111.598 534.32 114.652 535.398 117.707 536.1 121.994 536.426 127.511 537.135 135.314 537.489 141.982 537.489 147.513 537.489 164.901 536.27 181.195 533.83 196.396 533.108 201.018 532.079 204.663 530.745 207.331 529.411 209.998 528.558 211.479 528.185 211.773 520.815 217.925 511.27 221.001 499.549 221.001 489.717 221.001 478.817 220.622 466.849 219.864 454.881 219.106 445.728 218.275 439.389 217.37 432.048 216.097 426.218 214.086 421.899 211.339 417.58 208.592 413.333 204.262 409.159 198.347 401.92 187.891 392.22 179.028 380.059 171.759 367.897 164.49 349.778 160.855 325.702 160.855 285.269 160.855 252.875 176.679 228.522 208.327 204.168 239.976 191.991 289.067 191.991 355.6 191.991 400.916 198.077 438.685 210.248 468.906 222.419 499.127 238.677 521.426 259.022 535.803 279.366 550.181 302.472 557.369 328.339 557.369 347.257 557.369 362.338 555.583 373.584 552.01 384.829 548.437 393.357 544.078 399.169 538.931 404.98 533.784 411.039 527.071 417.345 518.792 422.592 511.959 427.18 506.858 431.109 503.488 435.039 500.118 440.075 497.75 446.218 496.384 455.182 493.725 472.959 492.396 499.549 492.396 509.26 492.396 517.961 492.746 525.652 493.445 533.726 493.828 539.668 495.689 543.478 499.028 547.671 502.694 550.125 508.66 550.838 516.924 552.181 534.377 552.853 548.65 552.853 559.741 552.853 565.762 552.485 575.079 551.748 587.69 551.174 591.109 550.513 594.036 549.764 596.471 549.016 598.905 546.097 603.842 541.009 611.281 536.545 619.551 526.454 630.081 510.736 642.873 495.018 655.664 471.433 667.352 439.981 677.937 408.528 688.523 369.558 693.815 323.071 693.815 230.974 693.815 158.166 668.264 104.648 617.162 51.1297 566.06 24.3705 480.481 24.3705 360.427 24.3705 290.181 36.7013 229.87 61.3627 179.493 86.0242 129.116 121.452 90.6755 167.645 64.1718 213.838 37.668 268.133 24.4161 330.529 24.4161Z" stroke="#3A3A3A" stroke-width="8" stroke-linejoin="round" stroke-miterlimit="10" fill="#262626" fill-rule="evenodd"/></g></g><path d="M1272.53 743.416C1330.14 743.416 1374.33 751.491 1405.09 767.64 1435.86 783.79 1458.31 802.977 1472.45 825.201 1473.95 827.78 1475.24 830.597 1476.32 833.652 1477.4 836.707 1478.1 840.994 1478.43 846.511 1479.14 854.314 1479.49 860.982 1479.49 866.513 1479.49 883.901 1478.27 900.195 1475.83 915.395 1475.11 920.018 1474.08 923.662 1472.75 926.33 1471.41 928.998 1470.56 930.479 1470.18 930.773 1462.82 936.925 1453.27 940.001 1441.55 940.001 1431.72 940.001 1420.82 939.622 1408.85 938.864 1396.88 938.106 1387.73 937.275 1381.39 936.37 1374.05 935.097 1368.22 933.086 1363.9 930.339 1359.58 927.592 1355.33 923.261 1351.16 917.347 1343.92 906.89 1334.22 898.027 1322.06 890.758 1309.9 883.489 1291.78 879.855 1267.7 879.855 1227.27 879.855 1194.88 895.679 1170.52 927.327 1146.17 958.976 1133.99 1008.07 1133.99 1074.6 1133.99 1119.92 1140.08 1157.69 1152.25 1187.91 1164.42 1218.13 1180.68 1240.43 1201.02 1254.8 1221.37 1269.18 1244.47 1276.37 1270.34 1276.37 1289.26 1276.37 1304.34 1274.58 1315.58 1271.01 1326.83 1267.44 1335.36 1263.08 1341.17 1257.93 1346.98 1252.78 1353.04 1246.07 1359.34 1237.79 1364.59 1230.96 1369.18 1225.86 1373.11 1222.49 1377.04 1219.12 1382.08 1216.75 1388.22 1215.38 1397.18 1212.72 1414.96 1211.4 1441.55 1211.4 1451.26 1211.4 1459.96 1211.75 1467.65 1212.45 1475.73 1212.83 1481.67 1214.69 1485.48 1218.03 1489.67 1221.69 1492.12 1227.66 1492.84 1235.92 1494.18 1253.38 1494.85 1267.65 1494.85 1278.74 1494.85 1284.76 1494.48 1294.08 1493.75 1306.69 1493.17 1310.11 1492.51 1313.04 1491.76 1315.47 1491.02 1317.91 1488.1 1322.84 1483.01 1330.28 1478.54 1338.55 1468.45 1349.08 1452.74 1361.87 1437.02 1374.66 1413.43 1386.35 1381.98 1396.94 1350.53 1407.52 1311.56 1412.81 1265.07 1412.81 1172.97 1412.81 1100.17 1387.26 1046.65 1336.16 993.13 1285.06 966.371 1199.48 966.371 1079.43 966.371 1009.18 978.701 948.87 1003.36 898.493 1028.02 848.116 1063.45 809.675 1109.64 783.172 1155.84 756.668 1210.13 743.416 1272.53 743.416Z" stroke="#3A3A3A" stroke-width="8" stroke-linejoin="round" stroke-miterlimit="10" fill="#262626" fill-rule="evenodd"/><text fill="#000000" fill-opacity="0" font-family="Arial,Arial_MSFontService,sans-serif" font-size="669.399" x="966.371" y="1329.14">C</text></g></svg>