<svg width="574" height="1182" xmlns="http://www.w3.org/2000/svg" xmlns:xlink="http://www.w3.org/1999/xlink" xml:space="preserve" overflow="hidden"><defs><filter id="fx0" x="-10%" y="-10%" width="120%" height="120%" filterUnits="userSpaceOnUse" primitiveUnits="userSpaceOnUse"><feComponentTransfer color-interpolation-filters="sRGB"><feFuncR type="discrete" tableValues="0 0"/><feFuncG type="discrete" tableValues="0 0"/><feFuncB type="discrete" tableValues="0 0"/><feFuncA type="linear" slope="0.4" intercept="0"/></feComponentTransfer><feGaussianBlur stdDeviation="6.11111 6.11111"/></filter><clipPath id="clip1"><rect x="492" y="485" width="574" height="1182"/></clipPath></defs><g clip-path="url(#clip1)" transform="translate(-492 -485)"><g filter="url(#fx0)" transform="translate(491 719)"><g><path d="M330.289 24.4161C387.9 24.4161 432.088 32.4908 462.852 48.6403 493.616 64.7897 516.069 83.9767 530.211 106.201 531.713 108.78 533.002 111.598 534.08 114.652 535.157 117.707 535.859 121.994 536.186 127.511 536.895 135.314 537.249 141.982 537.249 147.513 537.249 164.901 536.029 181.195 533.59 196.396 532.867 201.018 531.839 204.663 530.505 207.331 529.171 209.998 528.317 211.479 527.944 211.773 520.575 217.925 511.03 221.001 499.309 221.001 489.477 221.001 478.577 220.622 466.609 219.864 454.641 219.106 445.488 218.275 439.149 217.37 431.808 216.097 425.978 214.086 421.659 211.339 417.34 208.592 413.093 204.262 408.919 198.347 401.68 187.891 391.98 179.028 379.818 171.759 367.657 164.49 349.538 160.855 325.462 160.855 285.028 160.855 252.635 176.679 228.281 208.327 203.928 239.976 191.751 289.067 191.751 355.6 191.751 400.916 197.837 438.685 210.008 468.906 222.179 499.127 238.436 521.426 258.781 535.803 279.126 550.181 302.232 557.369 328.099 557.369 347.017 557.369 362.098 555.583 373.343 552.01 384.588 548.437 393.117 544.078 398.928 538.931 404.74 533.784 410.798 527.071 417.104 518.792 422.351 511.959 426.94 506.858 430.869 503.488 434.799 500.118 439.835 497.75 445.977 496.384 454.942 493.725 472.719 492.396 499.309 492.396 509.02 492.396 517.72 492.746 525.412 493.445 533.485 493.828 539.427 495.689 543.238 499.028 547.431 502.694 549.884 508.66 550.598 516.924 551.941 534.377 552.613 548.65 552.613 559.741 552.613 565.762 552.244 575.079 551.507 587.69 550.934 591.109 550.272 594.036 549.524 596.471 548.775 598.905 545.857 603.842 540.768 611.281 536.305 619.551 526.214 630.081 510.496 642.873 494.778 655.664 471.193 667.352 439.74 677.937 408.288 688.523 369.318 693.815 322.831 693.815 230.734 693.815 157.926 668.264 104.408 617.162 50.8893 566.06 24.1302 480.481 24.1302 360.427 24.1302 290.181 36.4609 229.87 61.1224 179.493 85.7838 129.116 121.211 90.6755 167.404 64.1718 213.598 37.668 267.893 24.4161 330.289 24.4161Z" stroke="#3A3A3A" stroke-width="8" stroke-linejoin="round" stroke-miterlimit="10" fill="#404040" fill-rule="evenodd"/></g></g><path d="M821.289 743.416C878.9 743.416 923.088 751.491 953.852 767.64 984.616 783.79 1007.07 802.977 1021.21 825.201 1022.71 827.78 1024 830.597 1025.08 833.652 1026.16 836.707 1026.86 840.994 1027.19 846.511 1027.89 854.314 1028.25 860.982 1028.25 866.513 1028.25 883.901 1027.03 900.195 1024.59 915.395 1023.87 920.018 1022.84 923.662 1021.5 926.33 1020.17 928.998 1019.32 930.479 1018.94 930.773 1011.57 936.925 1002.03 940.001 990.309 940.001 980.477 940.001 969.577 939.622 957.609 938.864 945.641 938.106 936.488 937.275 930.149 936.37 922.808 935.097 916.978 933.086 912.659 930.339 908.34 927.592 904.093 923.261 899.919 917.347 892.68 906.89 882.98 898.027 870.818 890.758 858.656 883.489 840.538 879.855 816.462 879.855 776.028 879.855 743.635 895.679 719.281 927.327 694.928 958.976 682.751 1008.07 682.751 1074.6 682.751 1119.92 688.837 1157.69 701.008 1187.91 713.179 1218.13 729.436 1240.43 749.781 1254.8 770.126 1269.18 793.232 1276.37 819.099 1276.37 838.017 1276.37 853.098 1274.58 864.343 1271.01 875.588 1267.44 884.117 1263.08 889.928 1257.93 895.74 1252.78 901.798 1246.07 908.104 1237.79 913.351 1230.96 917.94 1225.86 921.869 1222.49 925.799 1219.12 930.835 1216.75 936.977 1215.38 945.942 1212.72 963.719 1211.4 990.309 1211.4 1000.02 1211.4 1008.72 1211.75 1016.41 1212.45 1024.49 1212.83 1030.43 1214.69 1034.24 1218.03 1038.43 1221.69 1040.88 1227.66 1041.6 1235.92 1042.94 1253.38 1043.61 1267.65 1043.61 1278.74 1043.61 1284.76 1043.24 1294.08 1042.51 1306.69 1041.93 1310.11 1041.27 1313.04 1040.52 1315.47 1039.78 1317.91 1036.86 1322.84 1031.77 1330.28 1027.3 1338.55 1017.21 1349.08 1001.5 1361.87 985.778 1374.66 962.193 1386.35 930.74 1396.94 899.288 1407.52 860.318 1412.81 813.831 1412.81 721.734 1412.81 648.926 1387.26 595.408 1336.16 541.889 1285.06 515.13 1199.48 515.13 1079.43 515.13 1009.18 527.461 948.87 552.122 898.493 576.784 848.116 612.211 809.675 658.404 783.172 704.598 756.668 758.893 743.416 821.289 743.416Z" stroke="#3A3A3A" stroke-width="8" stroke-linejoin="round" stroke-miterlimit="10" fill="#404040" fill-rule="evenodd"/><text fill="#000000" fill-opacity="0" font-family="Arial,Arial_MSFontService,sans-serif" font-size="669.399" x="515.13" y="1329.14">C</text></g></svg>