<svg width="2141" height="1182" xmlns="http://www.w3.org/2000/svg" xmlns:xlink="http://www.w3.org/1999/xlink" xml:space="preserve" overflow="hidden"><defs><filter id="fx0" x="-10%" y="-10%" width="120%" height="120%" filterUnits="userSpaceOnUse" primitiveUnits="userSpaceOnUse"><feComponentTransfer color-interpolation-filters="sRGB"><feFuncR type="discrete" tableValues="0 0"/><feFuncG type="discrete" tableValues="0 0"/><feFuncB type="discrete" tableValues="0 0"/><feFuncA type="linear" slope="0.4" intercept="0"/></feComponentTransfer><feGaussianBlur stdDeviation="6.11111 6.11111"/></filter></defs><g transform="translate(-1624 -357)"><g filter="url(#fx0)" transform="translate(2293 541)"><g><path d="M330.072 73.8401C387.683 73.8401 431.871 81.9149 462.635 98.0643 493.4 114.214 515.852 133.401 529.994 155.625 531.496 158.204 532.785 161.022 533.863 164.077 534.94 167.132 535.642 171.418 535.969 176.935 536.678 184.739 537.032 191.406 537.032 196.938 537.032 214.325 535.812 230.619 533.373 245.82 532.65 250.442 531.622 254.087 530.288 256.755 528.954 259.422 528.1 260.903 527.727 261.197 520.358 267.349 510.813 270.425 499.092 270.425 489.26 270.425 478.36 270.046 466.392 269.288 454.424 268.53 445.271 267.699 438.932 266.794 431.591 265.521 425.761 263.511 421.442 260.763 417.123 258.016 412.876 253.686 408.702 247.772 401.463 237.315 391.763 228.452 379.601 221.183 367.44 213.914 349.321 210.279 325.245 210.279 284.811 210.279 252.418 226.103 228.064 257.752 203.711 289.4 191.534 338.491 191.534 405.024 191.534 450.341 197.62 488.109 209.791 518.33 221.962 548.551 238.219 570.85 258.564 585.228 278.909 599.605 302.015 606.793 327.882 606.793 346.8 606.793 361.881 605.007 373.126 601.434 384.371 597.861 392.9 593.502 398.711 588.355 404.523 583.208 410.581 576.495 416.887 568.216 422.134 561.383 426.723 556.282 430.652 552.912 434.582 549.542 439.618 547.174 445.76 545.808 454.725 543.149 472.502 541.82 499.092 541.82 508.803 541.82 517.503 542.17 525.195 542.869 533.268 543.252 539.21 545.113 543.021 548.452 547.214 552.118 549.667 558.084 550.381 566.348 551.724 583.802 552.396 598.074 552.396 609.165 552.396 615.186 552.027 624.503 551.29 637.115 550.717 640.533 550.055 643.46 549.307 645.895 548.558 648.329 545.64 653.266 540.551 660.706 536.088 668.975 525.997 679.505 510.279 692.297 494.561 705.088 470.976 716.776 439.523 727.361 408.071 737.947 369.101 743.239 322.614 743.239 230.517 743.239 157.709 717.688 104.191 666.586 50.6723 615.484 23.9132 529.905 23.9132 409.851 23.9132 339.605 36.2439 279.294 60.9054 228.917 85.5668 178.54 120.994 140.1 167.187 113.596 213.381 87.092 267.676 73.8401 330.072 73.8401ZM697.985 24.2304C704.03 24.2304 709.482 26.257 714.342 30.3101 738.241 48.7613 756.895 66.802 770.305 84.4323 773.257 88.1823 775.069 91.5101 775.74 94.4158 776.412 97.3216 776.748 101.202 776.748 106.057L776.748 587.652C776.748 605.473 778.19 620.907 781.075 633.952 783.96 646.998 787.515 657.506 791.741 665.477 794.04 669.647 795.19 673.996 795.19 678.525 795.19 687.443 790.752 694.122 781.876 698.562L692.052 739.818C683.321 743.559 676.957 745.429 672.96 745.429 668.338 745.429 662.573 742.915 655.665 737.887 647.625 732.626 639.614 719.514 631.634 698.551 623.653 677.588 619.663 649.549 619.663 614.433L619.663 106.057C619.663 100.349 619.98 96.229 620.615 93.6987 621.249 91.1685 624.894 86.8903 631.55 80.8643 640.649 66.4149 657.608 49.384 682.426 29.7714 687.603 26.0774 692.789 24.2304 697.985 24.2304Z" stroke="#3A3A3A" stroke-width="8" stroke-linejoin="round" stroke-miterlimit="10" fill="#3B7D23" fill-rule="evenodd"/></g></g><path d="M2623.07 614.84C2680.68 614.84 2724.87 622.915 2755.64 639.064 2786.4 655.214 2808.85 674.401 2822.99 696.625 2824.5 699.204 2825.79 702.022 2826.86 705.077 2827.94 708.132 2828.64 712.418 2828.97 717.935 2829.68 725.739 2830.03 732.406 2830.03 737.938 2830.03 755.325 2828.81 771.619 2826.37 786.82 2825.65 791.442 2824.62 795.087 2823.29 797.755 2821.95 800.422 2821.1 801.903 2820.73 802.197 2813.36 808.349 2803.81 811.425 2792.09 811.425 2782.26 811.425 2771.36 811.046 2759.39 810.288 2747.42 809.53 2738.27 808.699 2731.93 807.794 2724.59 806.521 2718.76 804.51 2714.44 801.763 2710.12 799.016 2705.88 794.686 2701.7 788.771 2694.46 778.315 2684.76 769.452 2672.6 762.183 2660.44 754.914 2642.32 751.279 2618.24 751.279 2577.81 751.279 2545.42 767.103 2521.06 798.752 2496.71 830.4 2484.53 879.491 2484.53 946.024 2484.53 991.341 2490.62 1029.11 2502.79 1059.33 2514.96 1089.55 2531.22 1111.85 2551.56 1126.23 2571.91 1140.6 2595.02 1147.79 2620.88 1147.79 2639.8 1147.79 2654.88 1146.01 2666.13 1142.43 2677.37 1138.86 2685.9 1134.5 2691.71 1129.35 2697.52 1124.21 2703.58 1117.5 2709.89 1109.22 2715.13 1102.38 2719.72 1097.28 2723.65 1093.91 2727.58 1090.54 2732.62 1088.17 2738.76 1086.81 2747.72 1084.15 2765.5 1082.82 2792.09 1082.82 2801.8 1082.82 2810.5 1083.17 2818.19 1083.87 2826.27 1084.25 2832.21 1086.11 2836.02 1089.45 2840.21 1093.12 2842.67 1099.08 2843.38 1107.35 2844.72 1124.8 2845.4 1139.07 2845.4 1150.16 2845.4 1156.19 2845.03 1165.5 2844.29 1178.11 2843.72 1181.53 2843.06 1184.46 2842.31 1186.89 2841.56 1189.33 2838.64 1194.27 2833.55 1201.71 2829.09 1209.97 2819 1220.51 2803.28 1233.3 2787.56 1246.09 2763.98 1257.78 2732.52 1268.36 2701.07 1278.95 2662.1 1284.24 2615.61 1284.24 2523.52 1284.24 2450.71 1258.69 2397.19 1207.59 2343.67 1156.48 2316.91 1070.91 2316.91 950.851 2316.91 880.605 2329.24 820.294 2353.91 769.917 2378.57 719.54 2413.99 681.1 2460.19 654.596 2506.38 628.092 2560.68 614.84 2623.07 614.84ZM2990.99 565.23C2997.03 565.23 3002.48 567.257 3007.34 571.31 3031.24 589.761 3049.9 607.802 3063.3 625.432 3066.26 629.182 3068.07 632.51 3068.74 635.416 3069.41 638.322 3069.75 642.202 3069.75 647.057L3069.75 1128.65C3069.75 1146.47 3071.19 1161.91 3074.08 1174.95 3076.96 1188 3080.52 1198.51 3084.74 1206.48 3087.04 1210.65 3088.19 1215 3088.19 1219.52 3088.19 1228.44 3083.75 1235.12 3074.88 1239.56L2985.05 1280.82C2976.32 1284.56 2969.96 1286.43 2965.96 1286.43 2961.34 1286.43 2955.57 1283.92 2948.67 1278.89 2940.62 1273.63 2932.61 1260.51 2924.63 1239.55 2916.65 1218.59 2912.66 1190.55 2912.66 1155.43L2912.66 647.057C2912.66 641.349 2912.98 637.229 2913.61 634.699 2914.25 632.168 2917.89 627.89 2924.55 621.864 2933.65 607.415 2950.61 590.384 2975.43 570.771 2980.6 567.077 2985.79 565.23 2990.99 565.23Z" stroke="#3A3A3A" stroke-width="8" stroke-linejoin="round" stroke-miterlimit="10" fill="#3B7D23" fill-rule="evenodd"/><text fill="#000000" fill-opacity="0" font-family="Arial,Arial_MSFontService,sans-serif" font-size="721.199" x="2316.91" y="1196.28">Cl</text></g></svg>