<svg width="1280" height="1182" xmlns="http://www.w3.org/2000/svg" xmlns:xlink="http://www.w3.org/1999/xlink" xml:space="preserve" overflow="hidden"><defs><filter id="fx0" x="-10%" y="-10%" width="120%" height="120%" filterUnits="userSpaceOnUse" primitiveUnits="userSpaceOnUse"><feComponentTransfer color-interpolation-filters="sRGB"><feFuncR type="discrete" tableValues="0 0"/><feFuncG type="discrete" tableValues="0 0"/><feFuncB type="discrete" tableValues="0 0"/><feFuncA type="linear" slope="0.4" intercept="0"/></feComponentTransfer><feGaussianBlur stdDeviation="6.11111 6.11111"/></filter></defs><g transform="translate(-575 -485)"><g filter="url(#fx0)" transform="translate(813 670)"><g><path d="M330.05 73.4161C387.661 73.4161 431.849 81.4908 462.613 97.6403 493.378 113.79 515.831 132.977 529.972 155.201 531.474 157.78 532.764 160.598 533.841 163.652 534.918 166.707 535.62 170.994 535.947 176.511 536.656 184.314 537.01 190.982 537.01 196.513 537.01 213.901 535.791 230.195 533.351 245.396 532.628 250.018 531.6 253.663 530.266 256.331 528.932 258.998 528.079 260.479 527.705 260.773 520.336 266.925 510.791 270.001 499.07 270.001 489.238 270.001 478.338 269.622 466.37 268.864 454.402 268.106 445.249 267.275 438.91 266.37 431.569 265.097 425.739 263.086 421.42 260.339 417.101 257.592 412.854 253.262 408.68 247.347 401.441 236.891 391.741 228.028 379.579 220.759 367.418 213.49 349.299 209.855 325.223 209.855 284.79 209.855 252.396 225.679 228.043 257.327 203.689 288.976 191.512 338.067 191.512 404.6 191.512 449.916 197.598 487.685 209.769 517.906 221.94 548.127 238.198 570.426 258.542 584.803 278.887 599.181 301.993 606.369 327.86 606.369 346.778 606.369 361.859 604.583 373.104 601.01 384.35 597.437 392.878 593.078 398.689 587.931 404.501 582.784 410.559 576.071 416.865 567.792 422.112 560.959 426.701 555.858 430.63 552.488 434.56 549.118 439.596 546.75 445.738 545.384 454.703 542.725 472.48 541.396 499.07 541.396 508.781 541.396 517.482 541.746 525.173 542.445 533.246 542.828 539.188 544.689 542.999 548.028 547.192 551.694 549.645 557.66 550.359 565.924 551.702 583.377 552.374 597.65 552.374 608.741 552.374 614.762 552.005 624.079 551.268 636.69 550.695 640.109 550.034 643.036 549.285 645.471 548.536 647.905 545.618 652.842 540.529 660.281 536.066 668.551 525.975 679.081 510.257 691.873 494.539 704.664 470.954 716.352 439.501 726.937 408.049 737.523 369.079 742.815 322.592 742.815 230.495 742.815 157.687 717.264 104.169 666.162 50.6505 615.059 23.8914 529.481 23.8914 409.427 23.8914 339.181 36.2221 278.87 60.8835 228.493 85.545 178.116 120.972 139.676 167.166 113.172 213.359 86.668 267.654 73.4161 330.05 73.4161ZM697.963 23.8063C704.008 23.8063 709.46 25.8329 714.32 29.886 738.219 48.3372 756.873 66.3779 770.283 84.0082 773.235 87.7582 775.047 91.086 775.719 93.9918 776.39 96.8975 776.726 100.778 776.726 105.633L776.726 587.228C776.726 605.049 778.169 620.483 781.053 633.528 783.938 646.574 787.493 657.082 791.719 665.053 794.018 669.223 795.168 673.572 795.168 678.101 795.168 687.018 790.73 693.697 781.854 698.138L692.031 739.394C683.299 743.135 676.935 745.005 672.938 745.005 668.316 745.005 662.551 742.491 655.644 737.463 647.603 732.202 639.592 719.09 631.612 698.127 623.632 677.164 619.641 649.125 619.641 614.009L619.641 105.633C619.641 99.9245 619.959 95.8049 620.593 93.2747 621.227 90.7444 624.872 86.4662 631.528 80.4402 640.628 65.9908 657.586 48.9599 682.404 29.3473 687.581 25.6533 692.768 23.8063 697.963 23.8063Z" stroke="#3A3A3A" stroke-width="8" stroke-linejoin="round" stroke-miterlimit="10" fill="#3B7D23" fill-rule="evenodd"/></g></g><path d="M1143.05 743.416C1200.66 743.416 1244.85 751.491 1275.61 767.64 1306.38 783.79 1328.83 802.977 1342.97 825.201 1344.47 827.78 1345.76 830.597 1346.84 833.652 1347.92 836.707 1348.62 840.994 1348.95 846.511 1349.66 854.314 1350.01 860.982 1350.01 866.513 1350.01 883.901 1348.79 900.195 1346.35 915.395 1345.63 920.018 1344.6 923.662 1343.27 926.33 1341.93 928.998 1341.08 930.479 1340.71 930.773 1333.34 936.925 1323.79 940.001 1312.07 940.001 1302.24 940.001 1291.34 939.622 1279.37 938.864 1267.4 938.106 1258.25 937.275 1251.91 936.37 1244.57 935.097 1238.74 933.086 1234.42 930.339 1230.1 927.592 1225.85 923.261 1221.68 917.347 1214.44 906.891 1204.74 898.027 1192.58 890.758 1180.42 883.489 1162.3 879.855 1138.22 879.855 1097.79 879.855 1065.4 895.679 1041.04 927.327 1016.69 958.976 1004.51 1008.07 1004.51 1074.6 1004.51 1119.92 1010.6 1157.69 1022.77 1187.91 1034.94 1218.13 1051.2 1240.43 1071.54 1254.8 1091.89 1269.18 1114.99 1276.37 1140.86 1276.37 1159.78 1276.37 1174.86 1274.58 1186.1 1271.01 1197.35 1267.44 1205.88 1263.08 1211.69 1257.93 1217.5 1252.78 1223.56 1246.07 1229.87 1237.79 1235.11 1230.96 1239.7 1225.86 1243.63 1222.49 1247.56 1219.12 1252.6 1216.75 1258.74 1215.38 1267.7 1212.72 1285.48 1211.4 1312.07 1211.4 1321.78 1211.4 1330.48 1211.75 1338.17 1212.45 1346.25 1212.83 1352.19 1214.69 1356 1218.03 1360.19 1221.69 1362.65 1227.66 1363.36 1235.92 1364.7 1253.38 1365.37 1267.65 1365.37 1278.74 1365.37 1284.76 1365.01 1294.08 1364.27 1306.69 1363.69 1310.11 1363.03 1313.04 1362.29 1315.47 1361.54 1317.91 1358.62 1322.84 1353.53 1330.28 1349.07 1338.55 1338.97 1349.08 1323.26 1361.87 1307.54 1374.66 1283.95 1386.35 1252.5 1396.94 1221.05 1407.52 1182.08 1412.81 1135.59 1412.81 1043.49 1412.81 970.687 1387.26 917.169 1336.16 863.651 1285.06 836.891 1199.48 836.891 1079.43 836.891 1009.18 849.222 948.87 873.884 898.493 898.545 848.116 933.972 809.675 980.166 783.172 1026.36 756.668 1080.65 743.416 1143.05 743.416ZM1510.96 693.806C1517.01 693.806 1522.46 695.833 1527.32 699.886 1551.22 718.337 1569.87 736.378 1583.28 754.008 1586.23 757.758 1588.05 761.086 1588.72 763.992 1589.39 766.897 1589.73 770.778 1589.73 775.633L1589.73 1257.23C1589.73 1275.05 1591.17 1290.48 1594.05 1303.53 1596.94 1316.57 1600.49 1327.08 1604.72 1335.05 1607.02 1339.22 1608.17 1343.57 1608.17 1348.1 1608.17 1357.02 1603.73 1363.7 1594.85 1368.14L1505.03 1409.39C1496.3 1413.13 1489.94 1415 1485.94 1415 1481.32 1415 1475.55 1412.49 1468.64 1407.46 1460.6 1402.2 1452.59 1389.09 1444.61 1368.13 1436.63 1347.16 1432.64 1319.12 1432.64 1284.01L1432.64 775.633C1432.64 769.924 1432.96 765.805 1433.59 763.275 1434.23 760.744 1437.87 756.466 1444.53 750.44 1453.63 735.991 1470.59 718.96 1495.4 699.347 1500.58 695.653 1505.77 693.806 1510.96 693.806Z" stroke="#3A3A3A" stroke-width="8" stroke-linejoin="round" stroke-miterlimit="10" fill="#3B7D23" fill-rule="evenodd"/><text fill="#000000" fill-opacity="0" font-family="Arial,Arial_MSFontService,sans-serif" font-size="721.199" x="836.891" y="1324.85">Cl</text></g></svg>