<svg width="1280" height="1182" xmlns="http://www.w3.org/2000/svg" xmlns:xlink="http://www.w3.org/1999/xlink" xml:space="preserve" overflow="hidden"><defs><filter id="fx0" x="-10%" y="-10%" width="120%" height="120%" filterUnits="userSpaceOnUse" primitiveUnits="userSpaceOnUse"><feComponentTransfer color-interpolation-filters="sRGB"><feFuncR type="discrete" tableValues="0 0"/><feFuncG type="discrete" tableValues="0 0"/><feFuncB type="discrete" tableValues="0 0"/><feFuncA type="linear" slope="0.4" intercept="0"/></feComponentTransfer><feGaussianBlur stdDeviation="6.11111 6.11111"/></filter></defs><g transform="translate(-575 -485)"><g filter="url(#fx0)" transform="translate(1023 730)"><g><path d="M141.616 24.386 348.828 24.386C353.567 24.386 357.373 24.6484 360.246 25.1731 363.119 25.6978 365.591 26.6505 367.662 28.0311 385.6 40.3209 403.708 56.6873 421.987 77.1301 426.022 82.3726 428.039 87.0926 428.039 91.2903 428.039 96.2016 423.456 102.113 414.291 109.026 401.143 126.889 386.325 141.471 369.838 152.772 365.911 154.946 362.801 156.321 360.508 156.897 358.216 157.473 354.323 157.761 348.828 157.761L225.031 157.761C208.866 157.761 198.05 160.827 192.583 166.961 187.117 173.094 184.384 185.188 184.384 203.243L184.384 294.382 330.834 294.382C335.564 294.382 339.365 294.642 342.238 295.162 345.111 295.682 347.55 296.611 349.556 297.95 367.564 310.286 385.705 326.676 403.979 347.119 408.018 352.366 410.038 357.088 410.038 361.286 410.038 366.188 405.194 372.1 395.507 379.021 382.881 396.88 368.327 411.458 351.844 422.754 347.926 424.937 344.817 426.315 342.518 426.889 340.218 427.462 336.324 427.749 330.834 427.749L184.384 427.749 184.384 639.614C184.384 650.98 181.635 659.193 176.139 664.251 170.642 669.309 162.208 671.838 150.837 671.838L57.3265 671.838C46.0674 671.838 37.7361 669.353 32.3328 664.384 26.9294 659.414 24.2277 651.158 24.2277 639.614L24.2277 150.995C24.2277 118.934 27.2792 93.9103 33.3822 75.9232 39.4852 57.9361 51.1291 44.8498 68.314 36.6643 85.4989 28.4788 109.933 24.386 141.616 24.386Z" stroke="#3A3A3A" stroke-width="8" stroke-linejoin="round" stroke-miterlimit="10" fill="#78206E" fill-rule="evenodd"/></g></g><path d="M1164.62 754.386 1371.83 754.386C1376.57 754.386 1380.37 754.648 1383.25 755.173 1386.12 755.698 1388.59 756.65 1390.66 758.031 1408.6 770.321 1426.71 786.687 1444.99 807.13 1449.02 812.372 1451.04 817.092 1451.04 821.29 1451.04 826.201 1446.46 832.113 1437.29 839.025 1424.14 856.889 1409.33 871.471 1392.84 882.772 1388.91 884.946 1385.8 886.321 1383.51 886.897 1381.22 887.473 1377.32 887.761 1371.83 887.761L1248.03 887.761C1231.87 887.761 1221.05 890.827 1215.58 896.961 1210.12 903.094 1207.38 915.188 1207.38 933.243L1207.38 1024.38 1353.83 1024.38C1358.56 1024.38 1362.36 1024.64 1365.24 1025.16 1368.11 1025.68 1370.55 1026.61 1372.56 1027.95 1390.56 1040.29 1408.71 1056.68 1426.98 1077.12 1431.02 1082.37 1433.04 1087.09 1433.04 1091.29 1433.04 1096.19 1428.19 1102.1 1418.51 1109.02 1405.88 1126.88 1391.33 1141.46 1374.84 1152.75 1370.93 1154.94 1367.82 1156.31 1365.52 1156.89 1363.22 1157.46 1359.32 1157.75 1353.83 1157.75L1207.38 1157.75 1207.38 1369.61C1207.38 1380.98 1204.64 1389.19 1199.14 1394.25 1193.64 1399.31 1185.21 1401.84 1173.84 1401.84L1080.33 1401.84C1069.07 1401.84 1060.74 1399.35 1055.33 1394.38 1049.93 1389.41 1047.23 1381.16 1047.23 1369.61L1047.23 880.995C1047.23 848.934 1050.28 823.91 1056.38 805.923 1062.49 787.936 1074.13 774.85 1091.31 766.664 1108.5 758.479 1132.93 754.386 1164.62 754.386Z" stroke="#3A3A3A" stroke-width="8" stroke-linejoin="round" stroke-miterlimit="10" fill="#78206E" fill-rule="evenodd"/><text fill="#000000" fill-opacity="0" font-family="Arial,Arial_MSFontService,sans-serif" font-size="647.452" x="1047.23" y="1320.91">F</text></g></svg>