<svg width="1280" height="849" xmlns="http://www.w3.org/2000/svg" xmlns:xlink="http://www.w3.org/1999/xlink" xml:space="preserve" overflow="hidden"><defs><filter id="fx0" x="-10%" y="-10%" width="120%" height="120%" filterUnits="userSpaceOnUse" primitiveUnits="userSpaceOnUse"><feComponentTransfer color-interpolation-filters="sRGB"><feFuncR type="discrete" tableValues="0 0"/><feFuncG type="discrete" tableValues="0 0"/><feFuncB type="discrete" tableValues="0 0"/><feFuncA type="linear" slope="0.4" intercept="0"/></feComponentTransfer><feGaussianBlur stdDeviation="6.11111 6.11111"/></filter></defs><g transform="translate(-575 -485)"><g filter="url(#fx0)" transform="translate(1000 650)"><g><path d="M362.061 23.7949C366.267 23.7949 371.023 26.3321 376.329 31.4065 391.503 44.6835 404.002 58.5304 413.824 72.9471 415.777 75.7389 416.982 78.3611 417.441 80.8133 417.9 83.2656 418.129 86.3269 418.129 89.9972L418.129 465.278C418.129 473.235 416.204 478.985 412.352 482.526 408.501 486.067 402.598 487.838 394.643 487.838L329.175 487.838C321.293 487.838 315.46 486.099 311.677 482.619 307.894 479.14 306.003 473.359 306.003 465.278L306.003 308.343 136.285 308.343 136.285 465.278C136.285 473.235 134.36 478.985 130.512 482.526 126.664 486.067 120.759 487.838 112.798 487.838L47.3307 487.838C39.448 487.838 33.6153 486.099 29.8323 482.619 26.0494 479.14 24.1579 473.359 24.1579 465.278L24.1579 57.1116C24.1579 49.0983 26.0665 43.3349 29.8837 39.8214 33.701 36.3078 39.5166 34.5511 47.3307 34.5511L112.798 34.5511C120.691 34.5511 126.578 36.3388 130.461 39.9145 134.343 43.49 136.285 49.2224 136.285 57.1116L136.285 210.358 306.003 210.358 306.003 89.9972C306.003 85.5596 306.217 82.3407 306.644 80.3407 307.072 78.3406 307.884 76.4018 309.079 74.5242 319.244 59.6145 332.838 44.4729 349.86 29.0995 351.92 27.2644 353.885 25.9214 355.752 25.0708 357.62 24.2202 359.723 23.7949 362.061 23.7949Z" stroke="#3A3A3A" stroke-width="8" stroke-linejoin="round" stroke-miterlimit="10" fill="#7F7F7F" fill-rule="evenodd"/></g></g><path d="M1362.06 673.795C1366.27 673.795 1371.02 676.332 1376.33 681.406 1391.5 694.683 1404 708.53 1413.82 722.947 1415.78 725.739 1416.98 728.361 1417.44 730.813 1417.9 733.266 1418.13 736.327 1418.13 739.997L1418.13 1115.28C1418.13 1123.24 1416.2 1128.98 1412.35 1132.53 1408.5 1136.07 1402.6 1137.84 1394.64 1137.84L1329.18 1137.84C1321.29 1137.84 1315.46 1136.1 1311.68 1132.62 1307.89 1129.14 1306 1123.36 1306 1115.28L1306 958.343 1136.28 958.343 1136.28 1115.28C1136.28 1123.24 1134.36 1128.98 1130.51 1132.53 1126.66 1136.07 1120.76 1137.84 1112.8 1137.84L1047.33 1137.84C1039.45 1137.84 1033.62 1136.1 1029.83 1132.62 1026.05 1129.14 1024.16 1123.36 1024.16 1115.28L1024.16 707.111C1024.16 699.098 1026.07 693.335 1029.88 689.821 1033.7 686.308 1039.52 684.551 1047.33 684.551L1112.8 684.551C1120.69 684.551 1126.58 686.339 1130.46 689.914 1134.34 693.49 1136.28 699.222 1136.28 707.111L1136.28 860.357 1306 860.357 1306 739.997C1306 735.559 1306.22 732.341 1306.64 730.341 1307.07 728.34 1307.88 726.402 1309.08 724.524 1319.24 709.614 1332.84 694.473 1349.86 679.099 1351.92 677.264 1353.88 675.921 1355.75 675.071 1357.62 674.22 1359.72 673.795 1362.06 673.795Z" stroke="#3A3A3A" stroke-width="8" stroke-linejoin="round" stroke-miterlimit="10" fill="#7F7F7F" fill-rule="evenodd"/><text fill="#000000" fill-opacity="0" font-family="Arial,Arial_MSFontService,sans-serif" font-size="464.043" x="1024.16" y="1079.83">H</text></g></svg>