<svg width="608" height="1182" xmlns="http://www.w3.org/2000/svg" xmlns:xlink="http://www.w3.org/1999/xlink" xml:space="preserve" overflow="hidden"><defs><filter id="fx0" x="-10%" y="-10%" width="120%" height="120%" filterUnits="userSpaceOnUse" primitiveUnits="userSpaceOnUse"><feComponentTransfer color-interpolation-filters="sRGB"><feFuncR type="discrete" tableValues="0 0"/><feFuncG type="discrete" tableValues="0 0"/><feFuncB type="discrete" tableValues="0 0"/><feFuncA type="linear" slope="0.4" intercept="0"/></feComponentTransfer><feGaussianBlur stdDeviation="6.11111 6.11111"/></filter><clipPath id="clip1"><rect x="1518" y="357" width="608" height="1182"/></clipPath></defs><g clip-path="url(#clip1)" transform="translate(-1518 -357)"><g filter="url(#fx0)" transform="translate(1517 586)"><g><path d="M506.159 24.4466C512.166 24.4466 518.959 28.0706 526.538 35.3186 548.213 54.2828 566.064 74.0609 580.094 94.653 582.883 98.6408 584.605 102.386 585.261 105.889 585.916 109.392 586.244 113.764 586.244 119.007L586.244 655.038C586.244 666.404 583.493 674.617 577.992 679.675 572.49 684.733 564.059 687.262 552.697 687.262L459.186 687.262C447.927 687.262 439.596 684.777 434.193 679.808 428.789 674.838 426.088 666.582 426.088 655.038L426.088 430.881 183.671 430.881 183.671 655.038C183.671 666.404 180.923 674.617 175.426 679.675 169.929 684.733 161.495 687.262 150.124 687.262L56.6138 687.262C45.3546 687.262 37.0234 684.777 31.62 679.808 26.2166 674.838 23.515 666.582 23.515 655.038L23.515 72.0344C23.515 60.5887 26.2411 52.3566 31.6935 47.338 37.1458 42.3194 45.4526 39.8101 56.6138 39.8101L150.124 39.8101C161.398 39.8101 169.807 42.3637 175.353 47.4709 180.898 52.5781 183.671 60.7659 183.671 72.0344L183.671 290.923 426.088 290.923 426.088 119.007C426.088 112.668 426.393 108.07 427.004 105.214 427.615 102.357 428.774 99.5876 430.481 96.9058 445.001 75.6094 464.417 53.982 488.731 32.0234 491.674 29.4022 494.48 27.4841 497.148 26.269 499.815 25.0541 502.819 24.4466 506.159 24.4466Z" stroke="#3A3A3A" stroke-width="8" stroke-linejoin="round" stroke-miterlimit="10" fill="#A6A6A6" fill-rule="evenodd"/></g></g><path d="M2023.16 610.447C2029.17 610.447 2035.96 614.071 2043.54 621.319 2065.21 640.283 2083.06 660.061 2097.09 680.653 2099.88 684.641 2101.61 688.386 2102.26 691.889 2102.92 695.392 2103.24 699.764 2103.24 705.007L2103.24 1241.04C2103.24 1252.4 2100.49 1260.62 2094.99 1265.67 2089.49 1270.73 2081.06 1273.26 2069.7 1273.26L1976.19 1273.26C1964.93 1273.26 1956.6 1270.78 1951.19 1265.81 1945.79 1260.84 1943.09 1252.58 1943.09 1241.04L1943.09 1016.88 1700.67 1016.88 1700.67 1241.04C1700.67 1252.4 1697.92 1260.62 1692.43 1265.67 1686.93 1270.73 1678.5 1273.26 1667.12 1273.26L1573.61 1273.26C1562.35 1273.26 1554.02 1270.78 1548.62 1265.81 1543.22 1260.84 1540.51 1252.58 1540.51 1241.04L1540.51 658.034C1540.51 646.589 1543.24 638.357 1548.69 633.338 1554.15 628.319 1562.45 625.81 1573.61 625.81L1667.12 625.81C1678.4 625.81 1686.81 628.364 1692.35 633.471 1697.9 638.578 1700.67 646.766 1700.67 658.034L1700.67 876.923 1943.09 876.923 1943.09 705.007C1943.09 698.668 1943.39 694.07 1944 691.214 1944.62 688.357 1945.77 685.588 1947.48 682.906 1962 661.609 1981.42 639.982 2005.73 618.023 2008.67 615.402 2011.48 613.484 2014.15 612.269 2016.82 611.054 2019.82 610.447 2023.16 610.447Z" stroke="#3A3A3A" stroke-width="8" stroke-linejoin="round" stroke-miterlimit="10" fill="#A6A6A6" fill-rule="evenodd"/><text fill="#000000" fill-opacity="0" font-family="Arial,Arial_MSFontService,sans-serif" font-size="662.816" x="1540.51" y="1190.41">H</text></g></svg>