<svg width="1280" height="1182" xmlns="http://www.w3.org/2000/svg" xmlns:xlink="http://www.w3.org/1999/xlink" xml:space="preserve" overflow="hidden"><defs><filter id="fx0" x="-10%" y="-10%" width="120%" height="120%" filterUnits="userSpaceOnUse" primitiveUnits="userSpaceOnUse"><feComponentTransfer color-interpolation-filters="sRGB"><feFuncR type="discrete" tableValues="0 0"/><feFuncG type="discrete" tableValues="0 0"/><feFuncB type="discrete" tableValues="0 0"/><feFuncA type="linear" slope="0.4" intercept="0"/></feComponentTransfer><feGaussianBlur stdDeviation="6.11111 6.11111"/></filter></defs><g transform="translate(-575 -485)"><g filter="url(#fx0)" transform="translate(907 715)"><g><path d="M533.049 24.0225C538.763 24.0225 542.375 25.7785 543.886 29.2906 570.206 52.0794 590.035 73.6976 603.374 94.145 605.991 98.5199 607.613 102.376 608.24 105.713 608.867 109.05 609.181 113.34 609.181 118.583L609.181 641.447C609.181 657.146 605.738 668.636 598.851 675.917 591.965 683.198 580.711 686.838 565.091 686.838L522.947 686.838C501.053 686.838 480.761 681.697 462.07 671.415 443.378 661.133 420.192 638.581 392.51 603.759 364.829 568.937 335.643 517.755 304.953 450.214 241.494 350.701 202.819 290.423 188.929 269.381 183.721 261.49 179.895 254.808 177.451 249.333L176.756 247.676 176.756 654.614C176.756 665.826 174.188 674 169.053 679.135 163.918 684.271 155.742 686.838 144.525 686.838L56.2821 686.838C45.1816 686.838 37.1092 684.316 32.0649 679.272 27.0207 674.228 24.4986 666.008 24.4986 654.614L24.4986 98.3916C24.4986 78.3033 28.7651 63.447 37.2981 53.8226 45.831 44.1982 59.7685 39.386 79.1106 39.386L119.94 39.386C144.175 39.386 165.413 44.1446 183.654 53.6617 201.895 63.1788 223.024 83.4502 247.039 114.476 271.055 145.501 301.476 193.423 338.304 258.24 386.629 342.665 419.282 398.857 436.264 426.816 446.878 444.29 453.548 457.787 456.275 467.308L456.924 469.847 456.924 118.583C456.924 112.244 457.217 107.712 457.802 104.985 458.387 102.259 459.65 99.1192 461.59 95.5652 475.172 74.7166 493.264 53.4367 515.866 31.7253 519.411 28.9688 522.373 26.9958 524.752 25.8065 527.13 24.6172 529.896 24.0225 533.049 24.0225Z" stroke="#3A3A3A" stroke-width="8" stroke-linejoin="round" stroke-miterlimit="10" fill="#163E64" fill-rule="evenodd"/></g></g><path d="M1440.05 739.022C1445.76 739.022 1449.37 740.778 1450.89 744.29 1477.21 767.079 1497.04 788.697 1510.37 809.145 1512.99 813.52 1514.61 817.376 1515.24 820.713 1515.87 824.05 1516.18 828.34 1516.18 833.582L1516.18 1356.45C1516.18 1372.15 1512.74 1383.64 1505.85 1390.92 1498.96 1398.2 1487.71 1401.84 1472.09 1401.84L1429.95 1401.84C1408.05 1401.84 1387.76 1396.7 1369.07 1386.42 1350.38 1376.13 1327.19 1353.58 1299.51 1318.76 1271.83 1283.94 1242.64 1232.76 1211.95 1165.21 1148.49 1065.7 1109.82 1005.42 1095.93 984.381 1090.72 976.49 1086.89 969.807 1084.45 964.333L1083.76 962.676 1083.76 1369.61C1083.76 1380.83 1081.19 1389 1076.05 1394.14 1070.92 1399.27 1062.74 1401.84 1051.52 1401.84L963.282 1401.84C952.182 1401.84 944.109 1399.32 939.065 1394.27 934.021 1389.23 931.499 1381.01 931.499 1369.61L931.499 813.391C931.499 793.303 935.765 778.447 944.298 768.823 952.831 759.198 966.769 754.386 986.111 754.386L1026.94 754.386C1051.17 754.386 1072.41 759.144 1090.65 768.662 1108.9 778.179 1130.02 798.45 1154.04 829.476 1178.05 860.501 1208.48 908.423 1245.3 973.24 1293.63 1057.66 1326.28 1113.86 1343.26 1141.82 1353.88 1159.29 1360.55 1172.79 1363.27 1182.31L1363.92 1184.85 1363.92 833.582C1363.92 827.244 1364.22 822.712 1364.8 819.985 1365.39 817.259 1366.65 814.119 1368.59 810.565 1382.17 789.716 1400.26 768.437 1422.87 746.725 1426.41 743.969 1429.37 741.996 1431.75 740.806 1434.13 739.617 1436.9 739.022 1440.05 739.022Z" stroke="#3A3A3A" stroke-width="8" stroke-linejoin="round" stroke-miterlimit="10" fill="#163E64" fill-rule="evenodd"/><text fill="#000000" fill-opacity="0" font-family="Arial,Arial_MSFontService,sans-serif" font-size="662.816" x="931.499" y="1318.99">N</text></g></svg>