<svg width="630" height="1182" xmlns="http://www.w3.org/2000/svg" xmlns:xlink="http://www.w3.org/1999/xlink" xml:space="preserve" overflow="hidden"><defs><filter id="fx0" x="-10%" y="-10%" width="120%" height="120%" filterUnits="userSpaceOnUse" primitiveUnits="userSpaceOnUse"><feComponentTransfer color-interpolation-filters="sRGB"><feFuncR type="discrete" tableValues="0 0"/><feFuncG type="discrete" tableValues="0 0"/><feFuncB type="discrete" tableValues="0 0"/><feFuncA type="linear" slope="0.4" intercept="0"/></feComponentTransfer><feGaussianBlur stdDeviation="6.11111 6.11111"/></filter><clipPath id="clip1"><rect x="1507" y="357" width="630" height="1182"/></clipPath></defs><g clip-path="url(#clip1)" transform="translate(-1507 -357)"><g filter="url(#fx0)" transform="translate(1506 586)"><g><path d="M532.18 24.4466C537.893 24.4466 541.506 26.2026 543.017 29.7147 569.336 52.5035 589.166 74.1216 602.505 94.569 605.122 98.944 606.744 102.8 607.371 106.137 607.998 109.474 608.312 113.764 608.312 119.007L608.312 641.871C608.312 657.571 604.869 669.061 597.982 676.341 591.096 683.622 579.842 687.262 564.222 687.262L522.077 687.262C500.184 687.262 479.892 682.121 461.2 671.839 442.509 661.557 419.323 639.005 391.641 604.183 363.96 569.361 334.774 518.179 304.084 450.638 240.624 351.125 201.95 290.847 188.06 269.805 182.851 261.914 179.025 255.232 176.582 249.757L175.887 248.1 175.887 655.038C175.887 666.25 173.319 674.424 168.184 679.559 163.049 684.695 154.873 687.262 143.655 687.262L55.413 687.262C44.3124 687.262 36.24 684.74 31.1958 679.696 26.1516 674.652 23.6295 666.432 23.6295 655.038L23.6295 98.8157C23.6295 78.7274 27.8959 63.871 36.4289 54.2467 44.9619 44.6223 58.8994 39.8101 78.2414 39.8101L119.071 39.8101C143.306 39.8101 164.544 44.5687 182.785 54.0858 201.026 63.6029 222.155 83.8743 246.17 114.9 270.186 145.925 300.607 193.847 337.435 258.664 385.76 343.089 418.413 399.281 435.395 427.24 446.009 444.714 452.679 458.212 455.406 467.732L456.055 470.271 456.055 119.007C456.055 112.668 456.347 108.136 456.933 105.41 457.518 102.683 458.781 99.5433 460.721 95.9893 474.303 75.1407 492.395 53.8608 514.997 32.1494 518.542 29.3928 521.504 27.4199 523.882 26.2306 526.261 25.0413 529.027 24.4466 532.18 24.4466Z" stroke="#3A3A3A" stroke-width="8" stroke-linejoin="round" stroke-miterlimit="10" fill="#215F9A" fill-rule="evenodd"/></g></g><path d="M2038.18 610.447C2043.89 610.447 2047.51 612.203 2049.02 615.715 2075.34 638.503 2095.17 660.122 2108.51 680.569 2111.12 684.944 2112.74 688.8 2113.37 692.137 2114 695.474 2114.31 699.764 2114.31 705.007L2114.31 1227.87C2114.31 1243.57 2110.87 1255.06 2103.98 1262.34 2097.1 1269.62 2085.84 1273.26 2070.22 1273.26L2028.08 1273.26C2006.18 1273.26 1985.89 1268.12 1967.2 1257.84 1948.51 1247.56 1925.32 1225.01 1897.64 1190.18 1869.96 1155.36 1840.77 1104.18 1810.08 1036.64 1746.62 937.125 1707.95 876.847 1694.06 855.805 1688.85 847.914 1685.03 841.232 1682.58 835.757L1681.89 834.1 1681.89 1241.04C1681.89 1252.25 1679.32 1260.42 1674.18 1265.56 1669.05 1270.69 1660.87 1273.26 1649.66 1273.26L1561.41 1273.26C1550.31 1273.26 1542.24 1270.74 1537.2 1265.7 1532.15 1260.65 1529.63 1252.43 1529.63 1241.04L1529.63 684.816C1529.63 664.727 1533.9 649.871 1542.43 640.247 1550.96 630.622 1564.9 625.81 1584.24 625.81L1625.07 625.81C1649.31 625.81 1670.54 630.569 1688.78 640.086 1707.03 649.603 1728.15 669.874 1752.17 700.9 1776.19 731.925 1806.61 779.847 1843.43 844.664 1891.76 929.089 1924.41 985.281 1941.4 1013.24 1952.01 1030.71 1958.68 1044.21 1961.41 1053.73L1962.05 1056.27 1962.05 705.007C1962.05 698.668 1962.35 694.136 1962.93 691.41 1963.52 688.683 1964.78 685.543 1966.72 681.989 1980.3 661.141 1998.4 639.861 2021 618.149 2024.54 615.393 2027.5 613.42 2029.88 612.231 2032.26 611.041 2035.03 610.447 2038.18 610.447Z" stroke="#3A3A3A" stroke-width="8" stroke-linejoin="round" stroke-miterlimit="10" fill="#215F9A" fill-rule="evenodd"/><text fill="#000000" fill-opacity="0" font-family="Arial,Arial_MSFontService,sans-serif" font-size="662.816" x="1529.63" y="1190.41">N</text></g></svg>