<svg width="1280" height="1182" xmlns="http://www.w3.org/2000/svg" xmlns:xlink="http://www.w3.org/1999/xlink" xml:space="preserve" overflow="hidden"><defs><filter id="fx0" x="-10%" y="-10%" width="120%" height="120%" filterUnits="userSpaceOnUse" primitiveUnits="userSpaceOnUse"><feComponentTransfer color-interpolation-filters="sRGB"><feFuncR type="discrete" tableValues="0 0"/><feFuncG type="discrete" tableValues="0 0"/><feFuncB type="discrete" tableValues="0 0"/><feFuncA type="linear" slope="0.4" intercept="0"/></feComponentTransfer><feGaussianBlur stdDeviation="6.11111 6.11111"/></filter></defs><g transform="translate(-575 -485)"><g filter="url(#fx0)" transform="translate(887 720)"><g><path d="M339.618 160.296C290.463 160.296 253.474 176.705 228.652 209.524 203.83 242.343 191.418 292.166 191.418 358.994 191.418 421.101 203.686 469.523 228.222 504.262 252.757 539 288.719 556.369 336.106 556.369 384.184 556.369 420.611 539.065 445.389 504.458 470.167 469.85 482.556 422.239 482.556 361.624 482.556 292.787 471.108 242.023 448.212 209.332 425.316 176.641 389.118 160.296 339.618 160.296ZM343.571 23.8499C406.602 23.8499 461.163 36.4359 507.256 61.6081 553.349 86.7803 588.693 124.111 613.287 173.599 637.88 223.087 650.177 283.13 650.177 353.725 650.177 428.519 637.515 491.24 612.192 541.887 586.868 592.535 550.508 630.351 503.111 655.337 455.715 680.322 399.167 692.815 333.468 692.815 270.452 692.815 215.679 680.578 169.15 656.103 122.621 631.628 86.763 594.958 61.5768 546.092 36.3907 497.226 23.7976 437.346 23.7976 366.452 23.7976 291.224 36.3604 228.034 61.4859 176.88 86.6114 125.727 123.17 87.4332 171.161 61.9999 219.152 36.5665 276.622 23.8499 343.571 23.8499Z" stroke="#3A3A3A" stroke-width="8" stroke-linejoin="round" stroke-miterlimit="10" fill="#6B1515" fill-rule="evenodd"/></g></g><path d="M1226.62 880.296C1177.46 880.296 1140.47 896.705 1115.65 929.524 1090.83 962.343 1078.42 1012.17 1078.42 1078.99 1078.42 1141.1 1090.69 1189.52 1115.22 1224.26 1139.76 1259 1175.72 1276.37 1223.11 1276.37 1271.18 1276.37 1307.61 1259.07 1332.39 1224.46 1357.17 1189.85 1369.56 1142.24 1369.56 1081.62 1369.56 1012.79 1358.11 962.022 1335.21 929.332 1312.32 896.641 1276.12 880.296 1226.62 880.296ZM1230.57 743.85C1293.6 743.85 1348.16 756.436 1394.26 781.608 1440.35 806.78 1475.69 844.11 1500.29 893.599 1524.88 943.087 1537.18 1003.13 1537.18 1073.73 1537.18 1148.52 1524.52 1211.24 1499.19 1261.89 1473.87 1312.53 1437.51 1350.35 1390.11 1375.34 1342.71 1400.32 1286.17 1412.81 1220.47 1412.81 1157.45 1412.81 1102.68 1400.58 1056.15 1376.1 1009.62 1351.63 973.763 1314.96 948.577 1266.09 923.391 1217.23 910.798 1157.35 910.798 1086.45 910.798 1011.22 923.36 948.034 948.486 896.88 973.611 845.727 1010.17 807.433 1058.16 782 1106.15 756.566 1163.62 743.85 1230.57 743.85Z" stroke="#3A3A3A" stroke-width="8" stroke-linejoin="round" stroke-miterlimit="10" fill="#6B1515" fill-rule="evenodd"/><text fill="#000000" fill-opacity="0" font-family="Arial,Arial_MSFontService,sans-serif" font-size="668.965" x="910.798" y="1329.19">O</text></g></svg>