<svg width="2141" height="1182" xmlns="http://www.w3.org/2000/svg" xmlns:xlink="http://www.w3.org/1999/xlink" xml:space="preserve" overflow="hidden"><defs><filter id="fx0" x="-10%" y="-10%" width="120%" height="120%" filterUnits="userSpaceOnUse" primitiveUnits="userSpaceOnUse"><feComponentTransfer color-interpolation-filters="sRGB"><feFuncR type="discrete" tableValues="0 0"/><feFuncG type="discrete" tableValues="0 0"/><feFuncB type="discrete" tableValues="0 0"/><feFuncA type="linear" slope="0.4" intercept="0"/></feComponentTransfer><feGaussianBlur stdDeviation="6.11111 6.11111"/></filter></defs><g transform="translate(-1624 -357)"><g filter="url(#fx0)" transform="translate(2367 591)"><g><path d="M339.64 160.72C290.485 160.72 253.496 177.129 228.674 209.948 203.851 242.767 191.44 292.59 191.44 359.418 191.44 421.525 203.708 469.948 228.244 504.686 252.779 539.424 288.741 556.793 336.128 556.793 384.205 556.793 420.633 539.489 445.411 504.882 470.189 470.274 482.578 422.663 482.578 362.048 482.578 293.211 471.13 242.447 448.234 209.756 425.338 177.065 389.14 160.72 339.64 160.72ZM343.593 24.2739C406.623 24.2739 461.185 36.86 507.278 62.0322 553.371 87.2043 588.715 124.535 613.308 174.023 637.902 223.512 650.199 283.554 650.199 354.15 650.199 428.943 637.537 491.664 612.214 542.311 586.89 592.959 550.53 630.775 503.133 655.761 455.736 680.746 399.189 693.239 333.49 693.239 270.474 693.239 215.701 681.002 169.172 656.527 122.642 632.052 86.7849 595.382 61.5987 546.516 36.4125 497.65 23.8195 437.77 23.8195 366.876 23.8195 291.648 36.3822 228.458 61.5078 177.304 86.6333 126.151 123.192 87.8573 171.183 62.424 219.174 36.9905 276.644 24.2739 343.593 24.2739Z" stroke="#3A3A3A" stroke-width="8" stroke-linejoin="round" stroke-miterlimit="10" fill="#6B1515" fill-rule="evenodd"/></g></g><path d="M2706.64 751.72C2657.48 751.72 2620.5 768.129 2595.67 800.948 2570.85 833.767 2558.44 883.59 2558.44 950.418 2558.44 1012.52 2570.71 1060.95 2595.24 1095.69 2619.78 1130.42 2655.74 1147.79 2703.13 1147.79 2751.21 1147.79 2787.63 1130.49 2812.41 1095.88 2837.19 1061.27 2849.58 1013.66 2849.58 953.048 2849.58 884.211 2838.13 833.447 2815.23 800.756 2792.34 768.065 2756.14 751.72 2706.64 751.72ZM2710.59 615.274C2773.62 615.274 2828.19 627.86 2874.28 653.032 2920.37 678.204 2955.71 715.535 2980.31 765.023 3004.9 814.512 3017.2 874.554 3017.2 945.15 3017.2 1019.94 3004.54 1082.66 2979.21 1133.31 2953.89 1183.96 2917.53 1221.78 2870.13 1246.76 2822.74 1271.75 2766.19 1284.24 2700.49 1284.24 2637.47 1284.24 2582.7 1272 2536.17 1247.53 2489.64 1223.05 2453.78 1186.38 2428.6 1137.52 2403.41 1088.65 2390.82 1028.77 2390.82 957.876 2390.82 882.648 2403.38 819.458 2428.51 768.304 2453.63 717.151 2490.19 678.857 2538.18 653.424 2586.17 627.991 2643.64 615.274 2710.59 615.274Z" stroke="#3A3A3A" stroke-width="8" stroke-linejoin="round" stroke-miterlimit="10" fill="#6B1515" fill-rule="evenodd"/><text fill="#000000" fill-opacity="0" font-family="Arial,Arial_MSFontService,sans-serif" font-size="668.965" x="2390.82" y="1200.62">O</text></g></svg>