<svg width="1280" height="1182" xmlns="http://www.w3.org/2000/svg" xmlns:xlink="http://www.w3.org/1999/xlink" xml:space="preserve" overflow="hidden"><defs><filter id="fx0" x="-10%" y="-10%" width="120%" height="120%" filterUnits="userSpaceOnUse" primitiveUnits="userSpaceOnUse"><feComponentTransfer color-interpolation-filters="sRGB"><feFuncR type="discrete" tableValues="0 0"/><feFuncG type="discrete" tableValues="0 0"/><feFuncB type="discrete" tableValues="0 0"/><feFuncA type="linear" slope="0.4" intercept="0"/></feComponentTransfer><feGaussianBlur stdDeviation="6.11111 6.11111"/></filter></defs><g transform="translate(-575 -485)"><g filter="url(#fx0)" transform="translate(972 721)"><g><path d="M272.085 23.7314C305.107 23.7314 333.963 27.795 358.652 35.9222 383.342 44.0493 402.82 53.3846 417.087 63.9277 431.355 74.4709 441.238 84.1735 446.737 93.0353 449.89 97.7693 451.858 101.407 452.642 103.949 453.426 106.491 454.097 109.451 454.657 112.827 455.403 124.772 455.776 132.741 455.776 136.733 455.776 151.033 454.731 166.549 452.642 183.279 451.182 191.063 448.295 196.581 443.981 199.832 440.441 202.369 435.434 203.637 428.96 203.637 399.581 204.22 376.197 202.555 358.809 198.642 353.894 197.607 349.846 196.135 346.668 194.228 343.489 192.32 341.496 190.188 340.689 187.833 330.442 177.922 320.824 170.322 311.834 165.033 302.844 159.744 289.594 157.099 272.085 157.099 245.924 157.099 226.831 162.733 214.804 174.002 202.778 185.27 196.765 199.188 196.765 215.755 196.765 227.214 200.207 236.95 207.091 244.96 213.975 252.971 225.057 260.556 240.337 267.715 255.616 274.875 278.496 283.876 308.976 294.72 347.902 308.386 379.357 322.475 403.34 336.988 427.323 351.5 446.01 370.512 459.4 394.024 472.791 417.536 479.486 447.23 479.486 483.106 479.486 528.483 468.87 566.864 447.636 598.249 426.403 629.633 397.32 653 360.387 668.35 323.454 683.7 281.29 691.374 233.893 691.374 182.224 691.374 141.127 684.887 110.6 671.911 80.0734 658.935 57.0677 642.536 41.5829 622.714 37.7956 617.215 34.9202 612.668 32.9566 609.072 30.993 605.476 29.6311 601.901 28.8709 598.346 25.5407 580.674 23.8756 565.089 23.8756 551.591 23.8756 545.271 24.0202 540.502 24.3094 537.284 24.3094 534.383 24.6184 531.7 25.2364 529.235 25.8544 526.77 28.0243 523.205 31.7463 518.541 33.514 516.522 36.9351 514.878 42.0096 513.609 51.9255 511.412 63.9682 509.409 78.1378 507.599 92.3073 505.79 102.519 504.885 108.774 504.885 116.209 504.885 122.467 506.351 127.548 509.282 132.63 512.213 133.454 515.869 130.021 520.248 148.118 531.489 163.798 540.592 177.06 547.558 190.322 554.524 209.267 558.007 233.893 558.007 260.203 558.007 279.776 552.86 292.612 542.566 305.448 532.272 311.865 517.72 311.865 498.91 311.865 488.906 308.77 479.607 302.578 471.013 296.386 462.419 284.492 453.337 266.894 443.766 249.296 434.196 224.439 423.96 192.322 413.06 153.274 400.145 121.972 385.255 98.4161 368.39 74.8601 351.524 57.4257 331.002 46.1129 306.824 34.8001 282.645 29.1437 253.312 29.1437 218.826 29.1437 177.129 39.4619 141.572 60.0982 112.156 80.7345 82.7393 109.32 60.6477 145.854 45.8812 182.387 31.1146 224.465 23.7314 272.085 23.7314Z" stroke="#3A3A3A" stroke-width="8" stroke-linejoin="round" stroke-miterlimit="10" fill="#FFC000" fill-rule="evenodd"/></g></g><path d="M1244.09 744.731C1277.11 744.731 1305.96 748.795 1330.65 756.922 1355.34 765.049 1374.82 774.384 1389.09 784.928 1403.35 795.471 1413.24 805.173 1418.74 814.035 1421.89 818.769 1423.86 822.407 1424.64 824.949 1425.43 827.491 1426.1 830.451 1426.66 833.827 1427.4 845.772 1427.78 853.741 1427.78 857.733 1427.78 872.033 1426.73 887.548 1424.64 904.279 1423.18 912.063 1420.29 917.581 1415.98 920.831 1412.44 923.369 1407.43 924.637 1400.96 924.637 1371.58 925.22 1348.2 923.555 1330.81 919.642 1325.89 918.607 1321.85 917.135 1318.67 915.228 1315.49 913.32 1313.5 911.188 1312.69 908.833 1302.44 898.922 1292.82 891.322 1283.83 886.033 1274.84 880.743 1261.59 878.099 1244.09 878.099 1217.92 878.099 1198.83 883.733 1186.8 895.002 1174.78 906.27 1168.76 920.188 1168.76 936.755 1168.76 948.214 1172.21 957.95 1179.09 965.96 1185.98 973.971 1197.06 981.556 1212.34 988.715 1227.62 995.875 1250.5 1004.88 1280.98 1015.72 1319.9 1029.39 1351.36 1043.48 1375.34 1057.99 1399.32 1072.5 1418.01 1091.51 1431.4 1115.02 1444.79 1138.54 1451.49 1168.23 1451.49 1204.11 1451.49 1249.48 1440.87 1287.86 1419.64 1319.25 1398.4 1350.63 1369.32 1374 1332.39 1389.35 1295.45 1404.7 1253.29 1412.37 1205.89 1412.37 1154.22 1412.37 1113.13 1405.89 1082.6 1392.91 1052.07 1379.94 1029.07 1363.54 1013.58 1343.71 1009.8 1338.21 1006.92 1333.67 1004.96 1330.07 1002.99 1326.48 1001.63 1322.9 1000.87 1319.35 997.541 1301.67 995.876 1286.09 995.876 1272.59 995.876 1266.27 996.02 1261.5 996.309 1258.28 996.309 1255.38 996.618 1252.7 997.236 1250.23 997.854 1247.77 1000.02 1244.21 1003.75 1239.54 1005.51 1237.52 1008.94 1235.88 1014.01 1234.61 1023.93 1232.41 1035.97 1230.41 1050.14 1228.6 1064.31 1226.79 1074.52 1225.88 1080.77 1225.88 1088.21 1225.88 1094.47 1227.35 1099.55 1230.28 1104.63 1233.21 1105.45 1236.87 1102.02 1241.25 1120.12 1252.49 1135.8 1261.59 1149.06 1268.56 1162.32 1275.52 1181.27 1279.01 1205.89 1279.01 1232.2 1279.01 1251.78 1273.86 1264.61 1263.57 1277.45 1253.27 1283.87 1238.72 1283.87 1219.91 1283.87 1209.91 1280.77 1200.61 1274.58 1192.01 1268.39 1183.42 1256.49 1174.34 1238.89 1164.77 1221.3 1155.2 1196.44 1144.96 1164.32 1134.06 1125.27 1121.15 1093.97 1106.26 1070.42 1089.39 1046.86 1072.52 1029.43 1052 1018.11 1027.82 1006.8 1003.64 1001.14 974.312 1001.14 939.826 1001.14 898.129 1011.46 862.572 1032.1 833.156 1052.73 803.739 1081.32 781.648 1117.85 766.881 1154.39 752.115 1196.46 744.731 1244.09 744.731Z" stroke="#3A3A3A" stroke-width="8" stroke-linejoin="round" stroke-miterlimit="10" fill="#FFC000" fill-rule="evenodd"/><text fill="#000000" fill-opacity="0" font-family="Arial,Arial_MSFontService,sans-serif" font-size="667.643" x="995.876" y="1328.92">S</text></g></svg>